<?xml version="1.0" encoding="utf-8"?>
<!-- Generator: Adobe Illustrator 19.0.0, SVG Export Plug-In . SVG Version: 6.00 Build 0)  -->
<svg version="1.1" id="Capa_1" xmlns="http://www.w3.org/2000/svg" xmlns:xlink="http://www.w3.org/1999/xlink" x="0px" y="0px"
	 viewBox="-41 164.9 512 512" style="enable-background:new -41 164.9 512 512;" xml:space="preserve">
<style type="text/css">
	.st0{fill:#E5003C;}
	.st1{fill:#FFFFFF;}
</style>
<circle class="st0" cx="215" cy="422.9" r="246.5"/>
<g>
	<path class="st1" d="M273.4,311.3c-10.2,0-18.5,8.2-18.5,18.5v60.7v123.3c-0.2,1.4-0.6,2.6-0.6,4.1c0.2,10.2,8.4,18.5,18.5,18.5
		c10.2,0,18.5-8.2,18.5-18.5h0.6V384.8V330C291.8,319.6,283.6,311.3,273.4,311.3z"/>
	<path class="st1" d="M220.4,329.8c-10.2,0-18.5,8.2-18.5,18.5v91.1V481c0,10.2,8.2,18.5,18.5,18.5c10.2,0,18.5-8.2,18.5-18.5v-75.6
		v-57C239,338.1,230.8,329.8,220.4,329.8z"/>
	<path class="st1" d="M167.1,269.1c-10.2,0-18.5,8.2-18.5,18.5v122.6v150c0.2,10.2,8.4,18.5,18.5,18.5c10.2,0,18.5-8.2,18.5-18.5
		V441.4V287.8C185.6,277.4,177.3,269.1,167.1,269.1z"/>
	<path class="st1" d="M113.3,353.4c-8.8,0-16.1,6.1-18.1,14.3v112.1c2,8.2,9.2,14.3,18.1,14.3c10.2,0,18.5-8.2,18.5-18.5v-80.3
		v-23.4C131.8,361.8,123.5,353.4,113.3,353.4z"/>
	<path class="st1" d="M343.9,366.1c-2.6-7.5-9.4-12.8-17.7-12.8c-10.2,0-18.5,8.2-18.5,18.5v23.6v80.5c0,10.2,8.2,18.5,18.5,18.5
		c8.2,0,15.1-5.3,17.7-12.8V366.1z"/>
</g>
</svg>
