<?xml version="1.0" encoding="utf-8"?>
<!-- Generator: Adobe Illustrator 19.0.0, SVG Export Plug-In . SVG Version: 6.00 Build 0)  -->
<svg version="1.1" id="Capa_1" xmlns="http://www.w3.org/2000/svg" xmlns:xlink="http://www.w3.org/1999/xlink" x="0px" y="0px"
	 viewBox="-41 164.9 512 512" style="enable-background:new -41 164.9 512 512;" xml:space="preserve">
<style type="text/css">
	.st0{fill:#10AEC9;}
	.st1{fill:#FFFFFF;}
</style>
<circle class="st0" cx="214.5" cy="420.3" r="246.5"/>
<g>
	<path class="st1" d="M269.9,308.7c-10.2,0-18.5,8.2-18.5,18.5v60.7v123.3c-0.2,1.4-0.6,2.6-0.6,4.1c0.2,10.2,8.4,18.5,18.5,18.5
		c10.2,0,18.5-8.2,18.5-18.5h0.6V382.2v-54.8C288.3,317,280.1,308.7,269.9,308.7z"/>
	<path class="st1" d="M216.9,327.2c-10.2,0-18.5,8.2-18.5,18.5v91.1v41.6c0,10.2,8.2,18.5,18.5,18.5c10.2,0,18.5-8.2,18.5-18.5
		v-75.6v-57C235.5,335.5,227.3,327.2,216.9,327.2z"/>
	<path class="st1" d="M163.6,266.5c-10.2,0-18.5,8.2-18.5,18.5v122.6v150c0.2,10.2,8.4,18.5,18.5,18.5c10.2,0,18.5-8.2,18.5-18.5
		V438.8V285.2C182.1,274.8,173.8,266.5,163.6,266.5z"/>
	<path class="st1" d="M109.8,350.8c-8.8,0-16.1,6.1-18.1,14.3v112.1c2,8.2,9.2,14.3,18.1,14.3c10.2,0,18.5-8.2,18.5-18.5v-80.3
		v-23.4C128.3,359.2,120,350.8,109.8,350.8z"/>
	<path class="st1" d="M340.4,363.5c-2.6-7.5-9.4-12.8-17.7-12.8c-10.2,0-18.5,8.2-18.5,18.5v23.6v80.5c0,10.2,8.2,18.5,18.5,18.5
		c8.2,0,15.1-5.3,17.7-12.8V363.5z"/>
</g>
</svg>
