<?xml version="1.0" encoding="utf-8"?>
<!-- Generator: Adobe Illustrator 19.0.0, SVG Export Plug-In . SVG Version: 6.00 Build 0)  -->
<svg version="1.1" id="Capa_1" xmlns="http://www.w3.org/2000/svg" xmlns:xlink="http://www.w3.org/1999/xlink" x="0px" y="0px"
	 viewBox="-41 164.9 512 512" style="enable-background:new -41 164.9 512 512;" xml:space="preserve">
<style type="text/css">
	.st0{fill:#10AEC9;}
	.st1{fill:#FFFFFF;}
</style>
<g id="XMLID_270_">
	<path id="XMLID_280_" class="st0" d="M354.1,336.7L331.8,359c-20.6,20.6-37.8,37.5-38.1,37.5c-0.4,0-1.3-1.5-2-3.4
		c-8.8-22.3-21-39-40.8-56.1l-3.6-3.2l8.3-8.8c4.6-4.8,19.7-20.4,33.5-34.7l8.6-8.8c-36-24.5-79.5-38.8-126.3-38.8
		c-124.2,0-224.9,100.6-224.9,224.7c0,50.8,16.9,97.7,45.4,135.4v-10.7l25.5-25.8c14-14.2,33.9-34.4,44.2-44.9s19.4-19.1,20.2-19.1
		c1.6,0,19.1,10.5,66.2,39.7c1.2,0.8,1.2,1.3-0.1,3.2c-1.4,2-38.1,39.8-88.8,91.5L45,651.1h-3.1c36.6,25.8,81.2,41,129.4,41
		c124.1,0,224.8-100.6,224.8-224.8C396.1,418.7,380.5,373.5,354.1,336.7z M141.3,383.3c-11.8,5.4-21,14.3-28.5,27.6
		c-4.2,7.5-4.6,7.5-13.2,2.1c-6-3.8-6.1-5.2-1.8-13.4c11.7-22,34.2-36.9,61.3-40.8c15.8-2.3,37.7,3,52.6,12.7
		c16.4,10.6,27.8,26.1,34,45.9c2.1,6.6,2.5,10,2.5,22.5s-0.4,15.9-2.5,22.5c-4.6,14.6-12.9,28.3-17.1,28.3c-0.8,0-3.7-1.4-6.4-3.1
		c-2.7-1.7-4.9-3.9-4.9-4.8s1.2-3.2,2.6-5.1c6.3-8.3,12-25.4,12.1-36.1c0-7.8-2.8-19.3-6.7-28c-6.9-14.9-21.5-27.9-37.5-33.4
		c-6.6-2.3-10.1-2.8-18.4-2.8C157.3,377.5,151.4,378.7,141.3,383.3z M280.4,466.4c-7.5,28.1-16,41.9-40.2,65.1
		c-21.2,20.4-34.9,38.9-42.6,57.8c-4.4,10.6-7.4,15.7-13.1,22c-12.2,13.5-29.2,20-46.8,17.7c-9.9-1.3-21.7-6.6-26.9-12.3
		c-3.7-4-3.3-9.7,0.9-13.3c3.9-3.3,5.5-3.1,13.8,1.9c7.9,4.7,16.7,6.5,24.6,4.8c14.1-2.9,19-7.8,30.3-30
		c8.5-16.7,18.9-33.9,26.3-43.2c2.1-2.6,11.1-12.3,20.2-21.5c18-18.4,21.3-22.7,27.2-35.5c5.9-12.6,8.4-24.3,8.4-38.8
		c0-29.2-8.9-51-28.8-70.4c-13.3-12.9-31.4-22.5-48.3-25.6c-13.8-2.5-34.4-1.2-48.2,3.1c-24.1,7.4-45.8,26.9-57.2,51.4
		c-2,4.4-7.1,21.5-7.1,24c0,1-0.6,2.7-1.4,3.7c-1.4,1.9-1.8,1.8-9.1-2.2c-4.2-2.3-8.2-4.9-8.8-5.9c-3.1-4.9,9.4-36,20.2-50.2
		c13-17.1,31.1-30.9,50-38.2c16.6-6.3,25.2-8,41.9-7.9c21.1,0,37.7,4.1,54.9,13.3c30.7,16.5,50.4,41.7,59.7,75.9
		c2.4,8.9,2.7,11.9,2.7,27.8C282.7,455,282.3,459.1,280.4,466.4z"/>
	<path id="XMLID_283_" class="st1" d="M59.1,636.8c50.7-51.7,87.4-89.5,88.8-91.5s1.4-2.4,0.1-3.2c-47.1-29.2-64.6-39.7-66.2-39.7
		c-0.8,0-9.9,8.6-20.2,19.1s-30.2,30.7-44.2,44.9l-25.5,25.8v10.7c14,18.6,30.9,34.9,50,48.4H45L59.1,636.8z"/>
	<path id="XMLID_284_" class="st1" d="M220.3,336.3c-17.2-9.3-33.8-13.3-54.9-13.3c-16.7,0-25.3,1.6-41.9,7.9
		c-18.9,7.2-37,21.1-50,38.2c-10.8,14.2-23.3,45.3-20.2,50.2c0.6,1,4.6,3.7,8.8,5.9c7.3,3.9,7.7,4,9.1,2.2c0.8-1.1,1.4-2.7,1.4-3.7
		c0-2.5,5-19.6,7.1-24c11.4-24.5,33.2-44,57.2-51.4c13.8-4.2,34.5-5.6,48.2-3.1c17,3.1,35.1,12.7,48.3,25.6
		c19.9,19.4,28.8,41.2,28.8,70.4c0,14.5-2.5,26.2-8.4,38.8c-5.9,12.8-9.2,17.1-27.2,35.5c-9,9.2-18.1,18.9-20.2,21.5
		c-7.4,9.4-17.9,26.5-26.3,43.2c-11.3,22.2-16.2,27.1-30.3,30c-7.9,1.6-16.8-0.1-24.6-4.8c-8.3-5-9.9-5.2-13.8-1.9
		c-4.2,3.5-4.6,9.3-0.9,13.3c5.2,5.6,17,11,26.9,12.3c17.6,2.2,34.6-4.2,46.8-17.7c5.7-6.3,8.7-11.4,13.1-22
		c7.8-18.9,21.4-37.4,42.6-57.8c24.2-23.2,32.7-37.1,40.2-65.1c2-7.3,2.3-11.4,2.3-26.5c0-15.9-0.3-18.9-2.7-27.8
		C270.7,378,250.9,352.8,220.3,336.3z"/>
	<path id="XMLID_285_" class="st1" d="M187.7,380.3c16.1,5.5,30.6,18.5,37.5,33.4c4,8.6,6.8,20.2,6.7,28c0,10.7-5.7,27.8-12.1,36.1
		c-1.4,1.9-2.6,4.2-2.6,5.1s2.2,3.1,4.9,4.8c2.7,1.7,5.6,3.1,6.4,3.1c4.3,0,12.5-13.7,17.1-28.3c2.1-6.6,2.5-10,2.5-22.5
		s-0.4-15.9-2.5-22.5c-6.2-19.8-17.7-35.3-34-45.9c-14.9-9.7-36.8-14.9-52.6-12.7c-27.1,3.9-49.6,18.8-61.3,40.8
		c-4.4,8.2-4.2,9.6,1.8,13.4c8.6,5.4,9,5.4,13.2-2.1c7.5-13.2,16.7-22.2,28.5-27.6c10.2-4.7,16-5.9,28-5.8
		C177.6,377.5,181.1,378.1,187.7,380.3z"/>
	<path id="XMLID_287_" class="st1" d="M255.5,325l-8.3,8.8l3.6,3.2c19.8,17.1,32,33.9,40.8,56.1c0.7,1.9,1.6,3.4,2,3.4
		s17.5-16.9,38.1-37.5l22.3-22.3c-15.4-21.5-34.6-40.2-56.5-55.2l-8.6,8.8C275.2,304.6,260.1,320.2,255.5,325z"/>
</g>
</svg>
