<?xml version="1.0" encoding="utf-8"?>
<!-- Generator: Adobe Illustrator 19.0.0, SVG Export Plug-In . SVG Version: 6.00 Build 0)  -->
<svg version="1.1" id="Layer_1" xmlns="http://www.w3.org/2000/svg" xmlns:xlink="http://www.w3.org/1999/xlink" x="0px" y="0px"
	 viewBox="0 0 119 119" style="enable-background:new 0 0 119 119;" xml:space="preserve">
<style type="text/css">
	.st0{fill:#2E8E97;}
</style>
<g id="XMLID_2_">
	<g id="XMLID_35_">
		<path id="XMLID_36_" class="st0" d="M50,30.8C67.4,22,84.8,21.2,97,27c-7.8-10.9-21-18-36-18C37,9,17.5,27.3,17.5,49.7
			c0,3.2,0.4,6.3,1.2,9.3C25.5,47.9,36.5,37.6,50,30.8z M111.6,43.7C109.2,36,104,30.4,97,27c4.7,6.5,7.4,14.3,7.4,22.7
			c0,22.5-19.4,40.7-43.4,40.7C40.4,90.4,23.2,77,18.7,59c-7,11.5-9.7,23.9-6.3,34.5c6.6,20.9,34.2,26.7,61.6,12.9
			C101.4,92.6,118.2,64.5,111.6,43.7z"/>
	</g>
</g>
</svg>
