<?xml version="1.0" encoding="utf-8"?>
<!-- Generator: Adobe Illustrator 19.0.0, SVG Export Plug-In . SVG Version: 6.00 Build 0)  -->
<svg version="1.1" id="Layer_1" xmlns="http://www.w3.org/2000/svg" xmlns:xlink="http://www.w3.org/1999/xlink" x="0px" y="0px"
	 viewBox="-177 247.5 239.7 346.4" style="enable-background:new -177 247.5 239.7 346.4;" xml:space="preserve">
<style type="text/css">
	.st0{fill:#10AEC9;}
	.st1{fill:url(#XMLID_8_);}
	.st2{fill:url(#XMLID_9_);}
	.st3{fill:url(#XMLID_10_);}
	.st4{fill:url(#XMLID_11_);}
	.st5{fill:url(#XMLID_12_);}
	.st6{fill:url(#XMLID_13_);}
	.st7{fill:url(#XMLID_14_);}
	.st8{fill:url(#XMLID_15_);}
	.st9{fill:url(#XMLID_16_);}
	.st10{fill:url(#XMLID_17_);}
</style>
<g id="XMLID_1_">
	<path id="XMLID_7_" class="st0" d="M606.8,1913c7.1,0,12.8-5.7,12.8-12.8h0.4v-130.1c0-7.1-5.7-12.8-12.8-12.8s-12.8,5.7-12.8,12.8
		v127.4c-0.2,1-0.4,1.8-0.4,2.8C594.1,1907.3,599.9,1913,606.8,1913z"/>
	<path id="XMLID_6_" class="st0" d="M570.5,1887.6c7.1,0,12.8-5.7,12.8-12.8v-91.9c0-7.1-5.7-12.8-12.8-12.8s-12.8,5.7-12.8,12.8
		v91.9C557.7,1881.9,563.4,1887.6,570.5,1887.6z"/>
	<path id="XMLID_5_" class="st0" d="M533.6,1942.4c7.1,0,12.8-5.7,12.8-12.8l0,0l0,0v-188.7c0-7.1-5.7-12.8-12.8-12.8
		s-12.8,5.7-12.8,12.8v188.7l0,0l0,0C521,1936.7,526.7,1942.4,533.6,1942.4z"/>
	<path id="XMLID_4_" class="st0" d="M643.8,1884c7.1,0,12.8-5.7,12.8-12.8v-26.6h36.7l0,0c4.1-0.4,7.3-3.7,7.3-7.9
		c0-4.1-3.2-7.7-7.3-7.9l0,0h-36.7v-29.6c0-7.1-5.7-12.8-12.8-12.8s-12.8,5.7-12.8,12.8v72C631,1878.3,636.7,1884,643.8,1884z"/>
	<path id="XMLID_3_" class="st0" d="M436,1836.7c0,4.1,3.2,7.7,7.3,7.9l0,0H480v10.5l0,0c0.2,6.7,5.9,12.2,12.8,12.2
		s12.4-5.5,12.8-12.2l0,0v-39.2c0-7.1-5.7-12.8-12.8-12.8s-12.8,5.7-12.8,12.8v12.8h-36.7l0,0C439.4,1829.2,436,1832.6,436,1836.7z"
		/>
</g>
<g id="XMLID_403_">
	
		<linearGradient id="XMLID_8_" gradientUnits="userSpaceOnUse" x1="1107.5254" y1="2067.0903" x2="1107.5254" y2="2154.7068" gradientTransform="matrix(-1 0 0 1 1663.3254 10.8799)">
		<stop  offset="0" style="stop-color:#0EADC8"/>
		<stop  offset="1" style="stop-color:#525CA6"/>
	</linearGradient>
	<path id="XMLID_343_" class="st1" d="M555.7,2166.4c3.6,0,6.5-2.9,6.5-6.5h0.2v-66c0-3.6-2.9-6.5-6.5-6.5s-6.5,2.9-6.5,6.5v64.6
		c-0.1,0.5-0.2,0.9-0.2,1.4C549.2,2163.5,552.1,2166.4,555.7,2166.4z"/>
	
		<linearGradient id="XMLID_9_" gradientUnits="userSpaceOnUse" x1="1126.1254" y1="2067.0903" x2="1126.1255" y2="2154.7068" gradientTransform="matrix(-1 0 0 1 1663.3254 10.8799)">
		<stop  offset="0" style="stop-color:#0EADC8"/>
		<stop  offset="1" style="stop-color:#525CA6"/>
	</linearGradient>
	<path id="XMLID_342_" class="st2" d="M537.2,2153.5c3.6,0,6.5-2.9,6.5-6.5v-46.6c0-3.6-2.9-6.5-6.5-6.5s-6.5,2.9-6.5,6.5v46.6
		C530.8,2150.6,533.7,2153.5,537.2,2153.5z"/>
	
		<linearGradient id="XMLID_10_" gradientUnits="userSpaceOnUse" x1="1144.7253" y1="2067.0903" x2="1144.7256" y2="2154.7068" gradientTransform="matrix(-1 0 0 1 1663.3254 10.8799)">
		<stop  offset="0" style="stop-color:#0EADC8"/>
		<stop  offset="1" style="stop-color:#525CA6"/>
	</linearGradient>
	<path id="XMLID_341_" class="st3" d="M518.6,2181.3c3.6,0,6.5-2.9,6.5-6.5l0,0l0,0v-95.7c0-3.6-2.9-6.5-6.5-6.5s-6.5,2.9-6.5,6.5
		v95.7l0,0l0,0C512.1,2178.4,515,2181.3,518.6,2181.3z"/>
	
		<linearGradient id="XMLID_11_" gradientUnits="userSpaceOnUse" x1="536.2" y1="-1184.5599" x2="536.2" y2="-1312.86" gradientTransform="matrix(1 0 0 -1 0 838.8301)">
		<stop  offset="0" style="stop-color:#0EADC8"/>
		<stop  offset="1" style="stop-color:#525CA6"/>
	</linearGradient>
	<path id="XMLID_404_" class="st4" d="M602.6,2129.9c0.2-0.4,0.4-0.8,0.5-1.3c3.5-9,5.5-18.8,5.5-29.1c0-42-32.4-76.1-72.4-76.1
		s-72.4,34.1-72.4,76.1c0,10.1,1.9,19.7,5.3,28.5c0.1,0.9,0.4,1.8,1,2.4c0.2,0.4,0.3,0.8,0.5,1.3h1.7c0.2,0,0.3,0.1,0.5,0.1l0,0
		h18.6v5.3l0,0c0.1,3.4,3,6.2,6.5,6.2s6.3-2.8,6.5-6.2l0,0v-19.9c0-3.6-2.9-6.5-6.5-6.5s-6.5,2.9-6.5,6.5v6.5h-3.5
		c-3.3-7.3-5.2-15.5-5.2-24.2c0-31.1,24-56.3,53.6-56.3s53.6,25.2,53.6,56.3c0,8.7-1.9,16.8-5.2,24.2H581v-15c0-3.6-2.9-6.5-6.5-6.5
		s-6.5,2.9-6.5,6.5v36.5c0,3.6,2.9,6.5,6.5,6.5s6.5-2.9,6.5-6.5v-13.5h18.6l0,0c0.2,0,0.3-0.1,0.5-0.1h1.9
		C602.2,2131.1,602.4,2130.5,602.6,2129.9z"/>
</g>
<g id="XMLID_397_">
	
		<linearGradient id="XMLID_12_" gradientUnits="userSpaceOnUse" x1="944.1254" y1="2050.8027" x2="944.1255" y2="2138.4192" gradientTransform="matrix(-1 0 0 1 1663.3254 10.8799)">
		<stop  offset="0" style="stop-color:#0EADC8"/>
		<stop  offset="1" style="stop-color:#525CA6"/>
	</linearGradient>
	<path id="XMLID_340_" class="st5" d="M719.1,2150.1c3.6,0,6.5-2.9,6.5-6.5h0.2v-66c0-3.6-2.9-6.5-6.5-6.5s-6.5,2.9-6.5,6.5v64.6
		c-0.1,0.5-0.2,0.9-0.2,1.4C712.7,2147.2,715.6,2150.1,719.1,2150.1z"/>
	
		<linearGradient id="XMLID_13_" gradientUnits="userSpaceOnUse" x1="962.6254" y1="2050.8027" x2="962.6254" y2="2138.4192" gradientTransform="matrix(-1 0 0 1 1663.3254 10.8799)">
		<stop  offset="0" style="stop-color:#0EADC8"/>
		<stop  offset="1" style="stop-color:#525CA6"/>
	</linearGradient>
	<path id="XMLID_339_" class="st6" d="M700.7,2137.2c3.6,0,6.5-2.9,6.5-6.5v-46.6c0-3.6-2.9-6.5-6.5-6.5s-6.5,2.9-6.5,6.5v46.6
		C694.2,2134.3,697.1,2137.2,700.7,2137.2z"/>
	
		<linearGradient id="XMLID_14_" gradientUnits="userSpaceOnUse" x1="981.2254" y1="2050.8027" x2="981.2255" y2="2138.4192" gradientTransform="matrix(-1 0 0 1 1663.3254 10.8799)">
		<stop  offset="0" style="stop-color:#0EADC8"/>
		<stop  offset="1" style="stop-color:#525CA6"/>
	</linearGradient>
	<path id="XMLID_333_" class="st7" d="M682.1,2165.1c3.6,0,6.5-2.9,6.5-6.5l0,0l0,0v-95.7c0-3.6-2.9-6.5-6.5-6.5s-6.5,2.9-6.5,6.5
		v95.7l0,0l0,0C675.6,2162.2,678.5,2165.1,682.1,2165.1z"/>
	
		<linearGradient id="XMLID_15_" gradientUnits="userSpaceOnUse" x1="914.2754" y1="2050.8027" x2="914.2755" y2="2138.4192" gradientTransform="matrix(-1 0 0 1 1663.3254 10.8799)">
		<stop  offset="0" style="stop-color:#0EADC8"/>
		<stop  offset="1" style="stop-color:#525CA6"/>
	</linearGradient>
	<path id="XMLID_332_" class="st8" d="M737.9,2135.4c3.6,0,6.5-2.9,6.5-6.5v-13.4H763l0,0c2.1-0.2,3.7-1.9,3.7-4
		c0-2.1-1.6-3.9-3.7-4l0,0h-18.6v-15c0-3.6-2.9-6.5-6.5-6.5s-6.5,2.9-6.5,6.5v36.5C731.5,2132.5,734.4,2135.4,737.9,2135.4z"/>
	
		<linearGradient id="XMLID_16_" gradientUnits="userSpaceOnUse" x1="1013.1754" y1="2050.8027" x2="1013.1755" y2="2138.4192" gradientTransform="matrix(-1 0 0 1 1663.3254 10.8799)">
		<stop  offset="0" style="stop-color:#0EADC8"/>
		<stop  offset="1" style="stop-color:#525CA6"/>
	</linearGradient>
	<path id="XMLID_331_" class="st9" d="M632.5,2111.5c0,2.1,1.6,3.9,3.7,4l0,0h18.6v5.3l0,0c0.1,3.4,3,6.2,6.5,6.2s6.3-2.8,6.5-6.2
		l0,0v-19.9c0-3.6-2.9-6.5-6.5-6.5s-6.5,2.9-6.5,6.5v6.5h-18.6l0,0C634.2,2107.6,632.5,2109.3,632.5,2111.5z"/>
</g>
<linearGradient id="XMLID_17_" gradientUnits="userSpaceOnUse" x1="701.3001" y1="-1182.6599" x2="701.3001" y2="-1331.46" gradientTransform="matrix(1 0 0 -1 0 838.8301)">
	<stop  offset="0" style="stop-color:#0EADC8"/>
	<stop  offset="1" style="stop-color:#525CA6"/>
</linearGradient>
<path id="XMLID_394_" class="st10" d="M701.3,2021.5c-41.1,0-74.4,33.3-74.4,74.4c0,41.1,33.3,74.4,74.4,74.4
	c41.1,0,74.4-33.3,74.4-74.4C775.8,2054.8,742.4,2021.5,701.3,2021.5z M701.3,2158.3c-34.5,0-62.4-27.9-62.4-62.4
	s27.9-62.4,62.4-62.4s62.4,27.9,62.4,62.4S735.8,2158.3,701.3,2158.3z"/>
<g>
	<path class="st0" d="M-30.8,365.4c-5.2,0-9.4,4.2-9.4,9.4v30.9v62.8c-0.1,0.7-0.3,1.3-0.3,2.1c0.1,5.2,4.3,9.4,9.4,9.4
		c5.2,0,9.4-4.2,9.4-9.4h0.3v-67.8v-27.9C-21.4,369.6-25.6,365.4-30.8,365.4z"/>
	<path class="st0" d="M-57.8,374.8c-5.2,0-9.4,4.2-9.4,9.4v46.4v21.2c0,5.2,4.2,9.4,9.4,9.4s9.4-4.2,9.4-9.4v-38.5v-29
		C-48.3,379-52.5,374.8-57.8,374.8z"/>
	<path class="st0" d="M-84.9,343.9c-5.2,0-9.4,4.2-9.4,9.4v62.4v76.4c0.1,5.2,4.3,9.4,9.4,9.4c5.2,0,9.4-4.2,9.4-9.4v-60.5v-78.2
		C-75.5,348.1-79.7,343.9-84.9,343.9z"/>
	<path class="st0" d="M-112.3,386.8c-4.5,0-8.2,3.1-9.2,7.3v57.1c1,4.2,4.7,7.3,9.2,7.3c5.2,0,9.4-4.2,9.4-9.4v-40.9v-11.9
		C-102.9,391.1-107.1,386.8-112.3,386.8z"/>
	<path class="st0" d="M5.1,393.3c-1.3-3.8-4.8-6.5-9-6.5c-5.2,0-9.4,4.2-9.4,9.4v12v41c0,5.2,4.2,9.4,9.4,9.4c4.2,0,7.7-2.7,9-6.5
		V393.3z"/>
</g>
</svg>
