<?xml version="1.0" encoding="utf-8"?>
<!-- Generator: Adobe Illustrator 19.0.0, SVG Export Plug-In . SVG Version: 6.00 Build 0)  -->
<svg version="1.1" id="Layer_1" xmlns="http://www.w3.org/2000/svg" xmlns:xlink="http://www.w3.org/1999/xlink" x="0px" y="0px"
	 viewBox="-177 247.5 593 346.4" style="enable-background:new -177 247.5 593 346.4;" xml:space="preserve">
<style type="text/css">
	.st0{fill:#10AEC9;}
	.st1{fill:url(#XMLID_8_);}
	.st2{fill:url(#XMLID_9_);}
	.st3{fill:url(#XMLID_10_);}
	.st4{fill:url(#XMLID_11_);}
	.st5{fill:url(#XMLID_12_);}
	.st6{fill:url(#XMLID_13_);}
	.st7{fill:url(#XMLID_14_);}
	.st8{fill:url(#XMLID_15_);}
	.st9{fill:url(#XMLID_16_);}
	.st10{fill:url(#XMLID_17_);}
</style>
<g id="XMLID_1_">
	<path id="XMLID_7_" class="st0" d="M783.8,1665.5c7.1,0,12.8-5.7,12.8-12.8h0.4v-130.1c0-7.1-5.7-12.8-12.8-12.8
		s-12.8,5.7-12.8,12.8V1650c-0.2,1-0.4,1.8-0.4,2.8C771.1,1659.8,776.9,1665.5,783.8,1665.5z"/>
	<path id="XMLID_6_" class="st0" d="M747.5,1640.1c7.1,0,12.8-5.7,12.8-12.8v-91.9c0-7.1-5.7-12.8-12.8-12.8s-12.8,5.7-12.8,12.8
		v91.9C734.7,1634.4,740.4,1640.1,747.5,1640.1z"/>
	<path id="XMLID_5_" class="st0" d="M710.6,1694.9c7.1,0,12.8-5.7,12.8-12.8l0,0l0,0v-188.7c0-7.1-5.7-12.8-12.8-12.8
		s-12.8,5.7-12.8,12.8v188.7l0,0l0,0C698,1689.2,703.7,1694.9,710.6,1694.9z"/>
	<path id="XMLID_4_" class="st0" d="M820.8,1636.5c7.1,0,12.8-5.7,12.8-12.8v-26.6h36.7l0,0c4.1-0.4,7.3-3.7,7.3-7.9
		c0-4.1-3.2-7.7-7.3-7.9l0,0h-36.7v-29.6c0-7.1-5.7-12.8-12.8-12.8s-12.8,5.7-12.8,12.8v72C808,1630.8,813.7,1636.5,820.8,1636.5z"
		/>
	<path id="XMLID_3_" class="st0" d="M613,1589.2c0,4.1,3.2,7.7,7.3,7.9l0,0H657v10.5l0,0c0.2,6.7,5.9,12.2,12.8,12.2
		s12.4-5.5,12.8-12.2l0,0v-39.2c0-7.1-5.7-12.8-12.8-12.8s-12.8,5.7-12.8,12.8v12.8h-36.7l0,0C616.4,1581.7,613,1585.1,613,1589.2z"
		/>
</g>
<g id="XMLID_403_">
	
		<linearGradient id="XMLID_8_" gradientUnits="userSpaceOnUse" x1="1638.5254" y1="-977.7102" x2="1638.5254" y2="-1065.3268" gradientTransform="matrix(-1 0 0 -1 2371.3254 852.7699)">
		<stop  offset="0" style="stop-color:#0EADC8"/>
		<stop  offset="1" style="stop-color:#525CA6"/>
	</linearGradient>
	<path id="XMLID_343_" class="st1" d="M732.7,1918.9c3.6,0,6.5-2.9,6.5-6.5h0.2v-66c0-3.6-2.9-6.5-6.5-6.5s-6.5,2.9-6.5,6.5v64.6
		c-0.1,0.5-0.2,0.9-0.2,1.4C726.2,1916,729.1,1918.9,732.7,1918.9z"/>
	
		<linearGradient id="XMLID_9_" gradientUnits="userSpaceOnUse" x1="1657.1254" y1="-977.7102" x2="1657.1255" y2="-1065.3268" gradientTransform="matrix(-1 0 0 -1 2371.3254 852.7699)">
		<stop  offset="0" style="stop-color:#0EADC8"/>
		<stop  offset="1" style="stop-color:#525CA6"/>
	</linearGradient>
	<path id="XMLID_342_" class="st2" d="M714.2,1906c3.6,0,6.5-2.9,6.5-6.5v-46.6c0-3.6-2.9-6.5-6.5-6.5s-6.5,2.9-6.5,6.5v46.6
		C707.8,1903.1,710.7,1906,714.2,1906z"/>
	
		<linearGradient id="XMLID_10_" gradientUnits="userSpaceOnUse" x1="1675.7253" y1="-977.7102" x2="1675.7256" y2="-1065.3268" gradientTransform="matrix(-1 0 0 -1 2371.3254 852.7699)">
		<stop  offset="0" style="stop-color:#0EADC8"/>
		<stop  offset="1" style="stop-color:#525CA6"/>
	</linearGradient>
	<path id="XMLID_341_" class="st3" d="M695.6,1933.8c3.6,0,6.5-2.9,6.5-6.5l0,0l0,0v-95.7c0-3.6-2.9-6.5-6.5-6.5s-6.5,2.9-6.5,6.5
		v95.7l0,0l0,0C689.1,1930.9,692,1933.8,695.6,1933.8z"/>
	
		<linearGradient id="XMLID_11_" gradientUnits="userSpaceOnUse" x1="713.2" y1="1777.9299" x2="713.2" y2="1906.23" gradientTransform="matrix(1 0 0 1 0 -2.0399)">
		<stop  offset="0" style="stop-color:#0EADC8"/>
		<stop  offset="1" style="stop-color:#525CA6"/>
	</linearGradient>
	<path id="XMLID_404_" class="st4" d="M779.6,1882.4c0.2-0.4,0.4-0.8,0.5-1.3c3.5-9,5.5-18.8,5.5-29.1c0-42-32.4-76.1-72.4-76.1
		s-72.4,34.1-72.4,76.1c0,10.1,1.9,19.7,5.3,28.5c0.1,0.9,0.4,1.8,1,2.4c0.2,0.4,0.3,0.8,0.5,1.3h1.7c0.2,0,0.3,0.1,0.5,0.1l0,0
		h18.6v5.3l0,0c0.1,3.4,3,6.2,6.5,6.2s6.3-2.8,6.5-6.2l0,0v-19.9c0-3.6-2.9-6.5-6.5-6.5s-6.5,2.9-6.5,6.5v6.5h-3.5
		c-3.3-7.3-5.2-15.5-5.2-24.2c0-31.1,24-56.3,53.6-56.3s53.6,25.2,53.6,56.3c0,8.7-1.9,16.8-5.2,24.2H758v-15c0-3.6-2.9-6.5-6.5-6.5
		s-6.5,2.9-6.5,6.5v36.5c0,3.6,2.9,6.5,6.5,6.5s6.5-2.9,6.5-6.5v-13.5h18.6l0,0c0.2,0,0.3-0.1,0.5-0.1h1.9
		C779.2,1883.6,779.4,1883,779.6,1882.4z"/>
</g>
<g id="XMLID_397_">
	
		<linearGradient id="XMLID_12_" gradientUnits="userSpaceOnUse" x1="1475.1255" y1="-961.4226" x2="1475.1255" y2="-1049.0392" gradientTransform="matrix(-1 0 0 -1 2371.3254 852.7699)">
		<stop  offset="0" style="stop-color:#0EADC8"/>
		<stop  offset="1" style="stop-color:#525CA6"/>
	</linearGradient>
	<path id="XMLID_340_" class="st5" d="M896.1,1902.6c3.6,0,6.5-2.9,6.5-6.5h0.2v-66c0-3.6-2.9-6.5-6.5-6.5s-6.5,2.9-6.5,6.5v64.6
		c-0.1,0.5-0.2,0.9-0.2,1.4C889.7,1899.7,892.6,1902.6,896.1,1902.6z"/>
	
		<linearGradient id="XMLID_13_" gradientUnits="userSpaceOnUse" x1="1493.6255" y1="-961.4226" x2="1493.6255" y2="-1049.0392" gradientTransform="matrix(-1 0 0 -1 2371.3254 852.7699)">
		<stop  offset="0" style="stop-color:#0EADC8"/>
		<stop  offset="1" style="stop-color:#525CA6"/>
	</linearGradient>
	<path id="XMLID_339_" class="st6" d="M877.7,1889.7c3.6,0,6.5-2.9,6.5-6.5v-46.6c0-3.6-2.9-6.5-6.5-6.5s-6.5,2.9-6.5,6.5v46.6
		C871.2,1886.8,874.1,1889.7,877.7,1889.7z"/>
	
		<linearGradient id="XMLID_14_" gradientUnits="userSpaceOnUse" x1="1512.2253" y1="-961.4226" x2="1512.2255" y2="-1049.0392" gradientTransform="matrix(-1 0 0 -1 2371.3254 852.7699)">
		<stop  offset="0" style="stop-color:#0EADC8"/>
		<stop  offset="1" style="stop-color:#525CA6"/>
	</linearGradient>
	<path id="XMLID_333_" class="st7" d="M859.1,1917.6c3.6,0,6.5-2.9,6.5-6.5l0,0l0,0v-95.7c0-3.6-2.9-6.5-6.5-6.5s-6.5,2.9-6.5,6.5
		v95.7l0,0l0,0C852.6,1914.7,855.5,1917.6,859.1,1917.6z"/>
	
		<linearGradient id="XMLID_15_" gradientUnits="userSpaceOnUse" x1="1445.2754" y1="-961.4226" x2="1445.2755" y2="-1049.0392" gradientTransform="matrix(-1 0 0 -1 2371.3254 852.7699)">
		<stop  offset="0" style="stop-color:#0EADC8"/>
		<stop  offset="1" style="stop-color:#525CA6"/>
	</linearGradient>
	<path id="XMLID_332_" class="st8" d="M914.9,1887.9c3.6,0,6.5-2.9,6.5-6.5V1868H940l0,0c2.1-0.2,3.7-1.9,3.7-4s-1.6-3.9-3.7-4l0,0
		h-18.6v-15c0-3.6-2.9-6.5-6.5-6.5s-6.5,2.9-6.5,6.5v36.5C908.5,1885,911.4,1887.9,914.9,1887.9z"/>
	
		<linearGradient id="XMLID_16_" gradientUnits="userSpaceOnUse" x1="1544.1754" y1="-961.4226" x2="1544.1754" y2="-1049.0392" gradientTransform="matrix(-1 0 0 -1 2371.3254 852.7699)">
		<stop  offset="0" style="stop-color:#0EADC8"/>
		<stop  offset="1" style="stop-color:#525CA6"/>
	</linearGradient>
	<path id="XMLID_331_" class="st9" d="M809.5,1864c0,2.1,1.6,3.9,3.7,4l0,0h18.6v5.3l0,0c0.1,3.4,3,6.2,6.5,6.2s6.3-2.8,6.5-6.2l0,0
		v-19.9c0-3.6-2.9-6.5-6.5-6.5s-6.5,2.9-6.5,6.5v6.5h-18.6l0,0C811.2,1860.1,809.5,1861.8,809.5,1864z"/>
</g>
<linearGradient id="XMLID_17_" gradientUnits="userSpaceOnUse" x1="878.3002" y1="1776.0299" x2="878.3002" y2="1924.83" gradientTransform="matrix(1 0 0 1 0 -2.0399)">
	<stop  offset="0" style="stop-color:#0EADC8"/>
	<stop  offset="1" style="stop-color:#525CA6"/>
</linearGradient>
<path id="XMLID_394_" class="st10" d="M878.3,1774c-41.1,0-74.4,33.3-74.4,74.4s33.3,74.4,74.4,74.4c41.1,0,74.4-33.3,74.4-74.4
	C952.8,1807.3,919.4,1774,878.3,1774z M878.3,1910.8c-34.5,0-62.4-27.9-62.4-62.4s27.9-62.4,62.4-62.4s62.4,27.9,62.4,62.4
	S912.8,1910.8,878.3,1910.8z"/>
<g>
	<path class="st0" d="M-34.9,374.2c-5.2,0-9.4,4.2-9.4,9.4v30.9v62.8c-0.1,0.7-0.3,1.3-0.3,2.1c0.1,5.2,4.3,9.4,9.4,9.4
		c5.2,0,9.4-4.2,9.4-9.4h0.3v-67.8v-27.9C-25.5,378.4-29.7,374.2-34.9,374.2z"/>
	<path class="st0" d="M-61.9,383.6c-5.2,0-9.4,4.2-9.4,9.4v46.4v21.2c0,5.2,4.2,9.4,9.4,9.4c5.2,0,9.4-4.2,9.4-9.4v-38.5v-29
		C-52.4,387.8-56.6,383.6-61.9,383.6z"/>
	<path class="st0" d="M-89,352.7c-5.2,0-9.4,4.2-9.4,9.4v62.4v76.4c0.1,5.2,4.3,9.4,9.4,9.4c5.2,0,9.4-4.2,9.4-9.4v-60.5v-78.2
		C-79.6,356.9-83.8,352.7-89,352.7z"/>
	<path class="st0" d="M-116.4,395.6c-4.5,0-8.2,3.1-9.2,7.3V460c1,4.2,4.7,7.3,9.2,7.3c5.2,0,9.4-4.2,9.4-9.4V417v-11.9
		C-107,399.9-111.2,395.6-116.4,395.6z"/>
	<path class="st0" d="M1,402.1c-1.3-3.8-4.8-6.5-9-6.5c-5.2,0-9.4,4.2-9.4,9.4v12v41c0,5.2,4.2,9.4,9.4,9.4c4.2,0,7.7-2.7,9-6.5
		V402.1z"/>
</g>
<g>
	<path d="M19.2,411.5v31.7h15.5v6H12.4v-37.6H19.2z"/>
	<path d="M51.5,450c-2.4,0-4.6-0.6-6.6-1.9s-3.6-3-4.8-5.2c-1.2-2.2-1.8-4.8-1.8-7.8c0-3.1,0.6-5.8,1.8-8c1.2-2.2,2.8-3.9,4.8-5.1
		c2-1.2,4.2-1.8,6.6-1.8c2.2,0,4.2,0.4,5.8,1.3c1.6,0.9,2.9,2.1,3.9,3.7s1.7,3.3,2,5.2c0.3,1.9,0.4,3.9,0.1,6H43.8v-3.7h14.7
		l-1.3,0.9c0.1-0.9,0-1.8-0.1-2.8c-0.1-0.9-0.4-1.8-0.8-2.6c-0.4-0.8-1-1.4-1.7-1.9s-1.7-0.7-2.9-0.7c-1.4,0-2.6,0.3-3.5,1
		c-1,0.7-1.7,1.6-2.2,2.8c-0.5,1.2-0.8,2.6-0.8,4.1v2.7c0,1.6,0.2,3,0.7,4.2c0.5,1.2,1.2,2.2,2.1,2.9c0.9,0.7,2.1,1,3.6,1
		c1.3,0,2.5-0.3,3.4-0.9c0.9-0.6,1.5-1.5,1.7-2.8h6.9c-0.3,1.8-1,3.4-2,4.8c-1.1,1.4-2.5,2.5-4.2,3.2C55.6,449.6,53.7,450,51.5,450z
		"/>
	<path d="M68.2,425.6V421h18.4v4.5H68.2z M81.3,450c-1.7,0-3.2-0.3-4.6-0.9c-1.4-0.6-2.5-1.6-3.3-2.8c-0.8-1.3-1.2-2.9-1.2-4.9
		v-27.8H79v27.6c0,2.3,1.1,3.5,3.3,3.5c0.7,0,1.4-0.1,2-0.2c0.7-0.2,1.4-0.4,2.3-0.7l1,4.8c-1.1,0.4-2.1,0.8-3.2,1.1
		C83.5,449.8,82.4,450,81.3,450z"/>
	<path d="M95.7,427.2l-4.8-2.7c1.3-0.6,2.4-1.3,3.4-2.2c1-0.8,1.7-1.8,2-2.9c-1.1-0.2-2.1-0.6-2.8-1.3c-0.7-0.7-1.1-1.6-1.1-2.7
		c0-1.2,0.5-2.2,1.4-3c0.9-0.8,2-1.2,3.4-1.2c1.1,0,2.1,0.3,2.9,0.9c0.8,0.6,1.4,1.3,1.8,2.3c0.4,0.9,0.6,2,0.6,3.1
		c0,1.9-0.6,3.7-1.9,5.4C99.4,424.7,97.7,426.1,95.7,427.2z"/>
	<path d="M120.9,450c-2.7,0-5-0.4-7-1.1c-1.9-0.7-3.4-1.8-4.5-3.2c-1-1.4-1.6-3.1-1.6-5.1h6.3c0.1,1.4,0.6,2.4,1.7,3s2.5,1,4.3,1
		c1,0,1.9-0.1,2.6-0.4s1.4-0.7,1.8-1.2c0.4-0.5,0.6-1.1,0.6-1.7c0-0.8-0.3-1.4-0.9-1.9c-0.6-0.5-1.5-0.9-2.7-1.3l-6.1-2.2
		c-2.2-0.8-3.9-1.8-5.1-3.1c-1.2-1.3-1.8-2.8-1.8-4.6c0-2.4,1.1-4.3,3.2-5.8c2.2-1.5,5-2.2,8.7-2.2c3.6,0,6.4,0.8,8.3,2.4
		c2,1.6,3,3.6,3,6h-6.4c-0.1-0.9-0.5-1.7-1.3-2.2c-0.8-0.5-2-0.8-3.6-0.8c-1.5,0-2.6,0.3-3.4,0.9c-0.8,0.6-1.2,1.3-1.2,2.1
		c0,1.3,1.1,2.3,3.4,3l6.7,2.5c2.2,0.7,3.8,1.7,5,2.8s1.8,2.6,1.8,4.4c0,1.5-0.5,2.9-1.5,4.2c-1,1.3-2.4,2.4-4.2,3.2
		C125.3,449.6,123.2,450,120.9,450z"/>
	<path d="M155.7,411.5h6.8v15.7h16.4v-15.7h6.8v37.6h-6.8v-16h-16.4v16h-6.8V411.5z"/>
	<path d="M207.1,450c-2.4,0-4.6-0.6-6.6-1.9s-3.6-3-4.8-5.2c-1.2-2.2-1.8-4.8-1.8-7.8c0-3.1,0.6-5.8,1.8-8c1.2-2.2,2.8-3.9,4.8-5.1
		c2-1.2,4.2-1.8,6.6-1.8c2.2,0,4.2,0.4,5.8,1.3c1.6,0.9,2.9,2.1,3.9,3.7s1.7,3.3,2,5.2c0.3,1.9,0.4,3.9,0.1,6h-19.5v-3.7h14.7
		l-1.3,0.9c0.1-0.9,0-1.8-0.1-2.8c-0.1-0.9-0.4-1.8-0.8-2.6c-0.4-0.8-1-1.4-1.7-1.9s-1.7-0.7-2.9-0.7c-1.4,0-2.6,0.3-3.5,1
		c-1,0.7-1.7,1.6-2.2,2.8c-0.5,1.2-0.8,2.6-0.8,4.1v2.7c0,1.6,0.2,3,0.7,4.2c0.5,1.2,1.2,2.2,2.1,2.9c0.9,0.7,2.1,1,3.6,1
		c1.3,0,2.5-0.3,3.4-0.9c0.9-0.6,1.5-1.5,1.7-2.8h6.9c-0.3,1.8-1,3.4-2,4.8c-1.1,1.4-2.5,2.5-4.2,3.2
		C211.2,449.6,209.2,450,207.1,450z"/>
	<path d="M236,450c-2.4,0-4.4-0.4-6-1.3c-1.6-0.8-2.8-1.9-3.6-3.3c-0.8-1.4-1.2-2.9-1.2-4.5c0-1.8,0.5-3.3,1.4-4.5
		c0.9-1.2,2.3-2.1,4-2.7s3.8-0.9,6.1-0.9c1.5,0,3,0.1,4.3,0.3c1.4,0.2,2.7,0.5,4.1,0.9v4c-1.1-0.3-2.2-0.6-3.5-0.8s-2.4-0.3-3.5-0.3
		c-1.6,0-3,0.3-4,0.9c-1,0.6-1.6,1.6-1.6,3c0,1,0.4,1.9,1.3,2.7c0.9,0.8,2.2,1.1,4.1,1.1c1.4,0,2.6-0.3,3.6-0.9
		c1-0.6,1.7-1.4,2.2-2.3c0.5-0.9,0.8-1.9,0.8-2.8h1.6c0,2-0.4,3.9-1.1,5.6c-0.8,1.7-1.9,3.1-3.3,4.1C240,449.5,238.2,450,236,450z
		 M245.2,449.2l-0.9-6.8V431c0-2-0.4-3.4-1.2-4.4c-0.8-0.9-2.2-1.4-4.1-1.4c-1.1,0-2.1,0.2-2.9,0.5c-0.8,0.3-1.4,0.8-1.9,1.4
		c-0.4,0.6-0.7,1.3-0.7,2.2h-7.5c0-2.1,0.5-3.9,1.5-5.2c1-1.3,2.5-2.3,4.4-3c1.9-0.6,4.2-0.9,6.9-0.9c2.4,0,4.6,0.4,6.4,1.2
		c1.8,0.8,3.2,2,4.2,3.6c1,1.6,1.5,3.7,1.5,6.2v17.9H245.2z"/>
	<path d="M261.2,449.2v-28.2h6.8v28.2H261.2z M266.4,436.8c0-3.7,0.4-6.7,1.2-9.2c0.8-2.4,1.9-4.2,3.3-5.4c1.4-1.2,3-1.8,4.7-1.8
		c0.5,0,0.9,0,1.3,0.1s0.8,0.1,1.2,0.3l-0.1,6.8c-0.5-0.1-1-0.2-1.6-0.3c-0.6-0.1-1.1-0.1-1.6-0.1c-1.5,0-2.8,0.4-3.8,1.1
		c-1,0.7-1.8,1.8-2.3,3.2c-0.5,1.4-0.8,3.2-0.8,5.2H266.4z"/>
</g>
</svg>
