<?xml version="1.0" encoding="utf-8"?>
<!-- Generator: Adobe Illustrator 19.0.0, SVG Export Plug-In . SVG Version: 6.00 Build 0)  -->
<svg version="1.1" id="Layer_1" xmlns="http://www.w3.org/2000/svg" xmlns:xlink="http://www.w3.org/1999/xlink" x="0px" y="0px"
	 viewBox="-97 220.9 400 400" style="enable-background:new -97 220.9 400 400;" xml:space="preserve">
<style type="text/css">
	.st0{fill:#10AEC9;}
</style>
<path class="st0" d="M226.4,513.8c-2.4-5-7.9-7.7-13.3-6.7c-7.4,1.4-15,2.1-22.4,2.1c-66.1,0-119.9-53.8-119.9-119.9
	c0-34,14.5-66.5,39.8-89.2c4.1-3.7,5.2-9.6,2.8-14.6c-2.4-5-7.9-7.7-13.3-6.7c-68.2,12.7-117.7,72.5-117.7,142
	c0,79.7,64.8,144.5,144.5,144.5c35.7,0,70-13.1,96.7-36.9C227.7,524.7,228.8,518.8,226.4,513.8z"/>
</svg>
