<?xml version="1.0" encoding="utf-8"?>
<!-- Generator: Adobe Illustrator 19.0.0, SVG Export Plug-In . SVG Version: 6.00 Build 0)  -->
<svg version="1.1" id="Layer_1" xmlns="http://www.w3.org/2000/svg" xmlns:xlink="http://www.w3.org/1999/xlink" x="0px" y="0px"
	 viewBox="-97 220.9 400 400" style="enable-background:new -97 220.9 400 400;" xml:space="preserve">
<style type="text/css">
	.st0{fill:#10AEC9;}
</style>
<g>
	<path class="st0" d="M104,346.3c-40.6,0-73.6,33-73.6,73.6c0,40.6,33,73.6,73.6,73.6c40.6,0,73.6-33,73.6-73.6
		C177.6,379.4,144.6,346.4,104,346.3z"/>
	<path class="st0" d="M104,506.2c-6.3,0-11.3,5.1-11.3,11.3v54.6c0,6.3,5.1,11.3,11.3,11.3c6.3,0,11.3-5.1,11.3-11.3v-54.6
		C115.3,511.3,110.3,506.2,104,506.2z"/>
	<path class="st0" d="M181.1,480.9c-2.2-2.1-5.1-3.3-8-3.3c-2.9,0-5.8,1.1-8,3.3c-4.4,4.4-4.4,11.6,0,16l38.6,38.6
		c4.4,4.4,11.6,4.4,16,0c4.4-4.4,4.4-11.6,0-16L181.1,480.9z"/>
	<path class="st0" d="M256.2,408.6h-54.6c-6.3,0-11.3,5.1-11.3,11.3c0,6.3,5.1,11.3,11.3,11.3h54.6c6.3,0,11.3-5.1,11.3-11.3
		C267.6,413.7,262.5,408.6,256.2,408.6z"/>
	<path class="st0" d="M181,358.9l38.6-38.6c4.4-4.4,4.4-11.6,0-16c-2.2-2.3-5.1-3.4-8-3.4c-2.9,0-5.8,1.1-8,3.3L165,342.9
		c-4.4,4.4-4.4,11.6,0,16C169.4,363.3,176.6,363.3,181,358.9z"/>
	<path class="st0" d="M104,333.6c6.3,0,11.3-5.1,11.3-11.3v-54.6c0-6.3-5-11.3-11.3-11.3s-11.3,5.1-11.3,11.3v54.6
		C92.7,328.6,97.8,333.6,104,333.6z"/>
	<path class="st0" d="M27,358.8c4.4,4.4,11.6,4.4,16,0c4.4-4.4,4.4-11.6,0-16L4.4,304.2c-2.2-2.2-5.1-3.3-8-3.3
		c-2.9,0-5.8,1.1-8,3.3c-4.4,4.4-4.4,11.6,0,16L27,358.8z"/>
	<path class="st0" d="M17.7,419.9c0-6.2-5.1-11.3-11.4-11.3h-54.5c-6.3,0-11.3,5.1-11.3,11.3c0,6.3,5.1,11.3,11.3,11.3H6.4
		C12.7,431.2,17.7,426.1,17.7,419.9z"/>
	<path class="st0" d="M34.9,477.6c-2.9,0-5.8,1.1-8,3.3l-38.6,38.6c-4.4,4.4-4.4,11.6,0,16c4.4,4.4,11.6,4.4,16,0l38.6-38.6
		c4.4-4.4,4.4-11.6,0-16C40.7,478.8,37.8,477.6,34.9,477.6z"/>
</g>
</svg>
